<?xml version="1.0" encoding="utf-8"?>
<!-- Generator: Adobe Illustrator 24.0.1, SVG Export Plug-In . SVG Version: 6.00 Build 0)  -->
<svg version="1.1" id="Слой_1" xmlns="http://www.w3.org/2000/svg" xmlns:xlink="http://www.w3.org/1999/xlink" x="0px" y="0px"
	 viewBox="0 0 1122 1122" style="enable-background:new 0 0 1122 1122;" xml:space="preserve">
<style type="text/css">
	.st0{display:none;}
	.st1{display:inline;}
	.st2{fill:#FFFFFF;}
	.st3{fill:#313233;}
	.st4{fill:#616E7D;}
	.st5{fill:#FC7F23;}
	.st6{font-family:'Arial-BoldMT';}
	.st7{font-size:298.7664px;}
</style>
<g id="Bg" class="st0">
	<g class="st1">
		<g>
			<rect x="-33" class="st2" width="1122" height="1122"/>
		</g>
	</g>
</g>
<g id="Object">
	<g>
		<path class="st3" d="M773.9,1014.5c25.4-20.6,31.7-58.2,20.4-97.5c-6-20.9-17-42.2-32.8-61.7c-3.1-3.9-6.4-7.5-9.7-11
			c-29.6-31.3-66.5-48.6-98.6-48.6c-16.9,0-32.5,4.8-45,15l-5.6,4.5c43.6,6,112.3,62.7,144.4,120.6l0.4,0.6
			c17.4,31.5,23,60.8,16.6,86L773.9,1014.5z"/>
		<path class="st4" d="M716.5,1060.6l-0.2,0.2L716.5,1060.6z"/>
		<path class="st5" d="M330.6,469.7l-26.8,21.8l-2.8,1.6l-4.5,3.6l-10.8,8.8l-5.9,4.8l-2.6,2.1c-8.9,7.3-11.1,16.7-8.7,19.7
			l18.8,23.2c32.1,24.2,77.3,70.8,121.3,124.9c44.2,54.3,80.5,108,97.6,144.2l19.3,23.7c1.3,1.6,4.3,1.8,5.4,1.8
			c4.9,0,10.7-2.4,15.6-6.3l8.4-6.8l6.9-5.6l11.9-9.7c1.4-1.1,2.9-2,4.4-2.8l21.9-17.8c14.4-11.7,32.8-17.9,53.1-17.9
			c36.3,0,76.6,19.7,107.9,52.6c3.9,4.1,7.3,7.9,10.3,11.7c16.1,19.8,27.8,41.8,34.6,64.1c150.3-75.3,253.6-230.7,253.6-410.3
			c0-253.3-205.3-458.7-458.7-458.7c-152.6,0-287.6,74.5-371,189.1c32.3,8.4,65,29.9,89.9,60.6c3.3,4.1,6.6,8.4,9.5,12.7
			C371.2,365.4,371.7,436.2,330.6,469.7z"/>
		<path class="st3" d="M322.5,459.7c36.2-29.5,33.8-93.3-3.7-147.5c-2.8-4.1-5.8-8-8.9-11.9c-25.4-31.2-57.6-51-88.1-57.4
			c-7-1.5-13.8-2.4-20.5-2.4c-13.4,0-26,3.2-36.8,9.6c13.4,2.3,27.2,9.4,40.7,19.3c26.4,19.2,51.4,49.1,69.1,76.3
			c12,18.4,46.5,75.8,41.7,119.5L322.5,459.7z"/>
		<path class="st3" d="M716.6,1060.5L716.6,1060.5L716.6,1060.5c2.8-1.8,5.7-3.9,8.4-6.1c2-1.6,3.9-3.4,5.8-5.1l0.2-0.3
			c2.3-1.5,4.6-3.2,6.8-4.9c1.8-1.5,3.5-3.1,5.2-4.7c18.4-29.2,11-65.3-8.4-99.5c-33.8-59.2-104.2-112.4-139.3-112.4
			c-5.4,0-10,1.3-13.5,4l-11.7,9.5l-6.9,5.6l-8.4,6.9c-7.5,6.1-16.1,9.2-23.7,9.2c-6.3,0-11.8-2.1-15.4-6.5l-20.3-25
			c-15.8-33.9-51.1-86.9-96.6-143c-45.6-56-90.3-101.4-120.3-123.7l-19.9-24.4c-7.9-9.7-3.1-26.5,10.6-37.7l2.5-2.1l5.9-4.8
			l10.8-8.8l10-8.1l1.3-1.1c20.1-45.3-42.3-153.8-100.9-197.2c-15.5-11.4-30.6-18.4-44-18.4c-3,0-5.9,0.3-8.6,1.1l-10.1,8.2
			l-3.9,3.2l-12.4,10.1l-1.7,1.4l-6.7,5.5l-4.3,3.5l-9.3,7.6l0.4,0.6c-80.9,83.8-17.4,307.4,147.5,510.2
			C379.2,977.2,539.5,1079,648,1079c25.7,0,48.5-5.7,67.4-17.7v0.1L716.6,1060.5L716.6,1060.5L716.6,1060.5z"/>
		<polygon class="st2" points="716.5,1060.6 716.5,1060.6 716.6,1060.5 		"/>
	</g>
	<text transform="matrix(1 0 0 1 421.3044 604.486)" class="st3 st6 st7">24/7</text>
</g>
</svg>
