<?xml version="1.0" encoding="utf-8"?>
<!-- Generator: Adobe Illustrator 24.0.1, SVG Export Plug-In . SVG Version: 6.00 Build 0)  -->
<svg version="1.1" id="Capa_1" xmlns="http://www.w3.org/2000/svg" xmlns:xlink="http://www.w3.org/1999/xlink" x="0px" y="0px"
	 viewBox="0 0 360.7 360.7" style="enable-background:new 0 0 360.7 360.7;" xml:space="preserve">
<style type="text/css">
	.st0{opacity:0.35;fill:#FA7F33;}
</style>
<path class="st0" d="M233.7,89.4c-0.2-0.1-0.4-0.2-0.6-0.3c-0.2-0.1-0.4-0.2-0.5-0.3c-15.4-8.8-33.2-13.8-52.2-13.8
	c-19,0-36.8,5-52.2,13.8c-0.2,0.1-0.4,0.2-0.5,0.3c-0.2,0.1-0.4,0.2-0.5,0.3c-31.2,18.3-52.2,52.3-52.2,91s21,72.7,52.2,91
	c0.2,0.1,0.4,0.2,0.5,0.3c0.2,0.1,0.4,0.2,0.5,0.3c15.4,8.8,33.2,13.8,52.2,13.8c19,0,36.8-5,52.2-13.8c0.2-0.1,0.4-0.2,0.5-0.3
	c0.2-0.1,0.4-0.2,0.6-0.3c31.2-18.3,52.2-52.3,52.2-91C285.8,141.6,264.9,107.7,233.7,89.4z M180.4,92.9c12.7,0,24.8,2.7,35.7,7.6
	l-23.6,40.9c-3.8-1.2-7.9-1.8-12.1-1.8c-4.2,0-8.3,0.6-12.1,1.8l-23.6-40.9C155.6,95.6,167.6,92.9,180.4,92.9z M203.1,180.4
	c0,12.6-10.2,22.8-22.8,22.8c-12.6,0-22.8-10.2-22.8-22.8c0-12.6,10.2-22.8,22.8-22.8C192.9,157.6,203.1,167.8,203.1,180.4z
	 M129.1,109.5l23.6,40.9c-5.9,5.5-10.3,12.7-12.1,20.9H93.3C95.9,146,109.4,123.8,129.1,109.5z M93.3,189.4h47.3
	c1.8,8.2,6.2,15.4,12.1,20.9l-23.6,40.9C109.4,236.9,95.9,214.7,93.3,189.4z M180.4,267.8c-12.7,0-24.8-2.7-35.7-7.6l23.6-40.9
	c3.8,1.2,7.9,1.8,12.1,1.8c4.2,0,8.3-0.6,12.1-1.8l23.6,40.9C205.2,265.1,193.1,267.8,180.4,267.8z M231.7,251.2L208,210.3
	c5.9-5.5,10.2-12.7,12.1-20.9h47.3C264.8,214.7,251.3,236.9,231.7,251.2z M220.1,171.4c-1.8-8.2-6.2-15.4-12.1-20.9l23.6-40.9
	c19.6,14.3,33.1,36.5,35.7,61.8H220.1z M315.4,161c-0.6,0.1-1.3,0.2-1.9,0.2c-4.2,0-7.9-2.9-8.8-7.1c-10.4-49.2-48.8-87.6-98-98
	c-4.9-1-8-5.8-6.9-10.7s5.8-8,10.7-7c56.1,11.8,100.1,55.8,111.9,111.9C323.3,155.2,320.2,159.9,315.4,161z M161,315.4
	c-0.9,4.2-4.6,7.1-8.8,7.1c-0.6,0-1.2-0.1-1.9-0.2c-56.1-11.8-100-55.8-111.9-111.9c-1-4.9,2.1-9.6,7-10.7c4.9-1,9.6,2.1,10.7,6.9
	c10.4,49.2,48.8,87.6,98,98C158.9,305.7,162,310.5,161,315.4z M180.3,171.4L180.3,171.4c5,0,9,4,9,9s-4,9-9,9s-9-4-9-9
	S175.4,171.4,180.3,171.4z M180.4,0C80.9,0,0,80.9,0,180.4s80.9,180.4,180.4,180.4c99.4,0,180.4-80.9,180.4-180.4S279.8,0,180.4,0z
	 M180.4,342.7C90.8,342.7,18,269.9,18,180.4S90.8,18,180.4,18c89.5,0,162.4,72.8,162.4,162.4S269.9,342.7,180.4,342.7z"/>
</svg>
