<?xml version="1.0" encoding="utf-8"?>
<!-- Generator: Adobe Illustrator 24.0.1, SVG Export Plug-In . SVG Version: 6.00 Build 0)  -->
<svg version="1.1" id="Слой_1" xmlns="http://www.w3.org/2000/svg" xmlns:xlink="http://www.w3.org/1999/xlink" x="0px" y="0px"
	 viewBox="0 0 64 64" style="enable-background:new 0 0 64 64;" xml:space="preserve">
<style type="text/css">
	.st0{fill:url(#SVGID_1_);}
	.st1{fill:url(#SVGID_2_);}
	.st2{fill:url(#SVGID_3_);}
	.st3{fill:url(#SVGID_4_);}
	.st4{fill:url(#SVGID_5_);}
	.st5{fill:url(#SVGID_6_);}
	.st6{fill:url(#SVGID_7_);}
</style>
<radialGradient id="SVGID_1_" cx="-606.127" cy="30.431" r="50.261" gradientTransform="matrix(-1 0 0 -1 -574 66)" gradientUnits="userSpaceOnUse">
	<stop  offset="0" style="stop-color:#F4E9C3"/>
	<stop  offset="0.219" style="stop-color:#F8EECD"/>
	<stop  offset="0.644" style="stop-color:#FDF4DC"/>
	<stop  offset="1" style="stop-color:#FFF6E1"/>
</radialGradient>
<path class="st0" d="M5.5,38h-2C1.6,38,0,36.4,0,34.5S1.6,31,3.5,31H10c1.1,0,2-0.9,2-2s-0.9-2-2-2H4.5C2.6,27,1,25.4,1,23.5
	S2.6,20,4.5,20H5c1.1,0,2-0.9,2-2s-0.9-2-2-2H3c-1.8,0-3.3-1.7-2.9-3.6C0.3,11,1.7,10,3.1,10H11c0.8,0,1.5-0.7,1.5-1.5S11.8,7,11,7
	H7.6C6.4,7,5.4,6.3,5.1,5.2C4.6,3.5,5.9,2,7.5,2H30h1.5h24C57.4,2,59,3.6,59,5.5S57.4,9,55.5,9H54c-1.1,0-2,0.9-2,2s0.9,2,2,2h5.4
	c1.7,0,3.2,1.1,3.5,2.8c0.5,2.2-1.3,4.2-3.4,4.2H52l3,12h5.4c1.7,0,3.2,1.1,3.5,2.8c0.5,2.2-1.3,4.2-3.4,4.2H60c-1.1,0-2,0.9-2,2
	s0.9,2,2,2h0.5c2.2,0,3.9,2,3.4,4.2c-0.3,1.6-1.9,2.8-3.5,2.8H55c-1.1,0-2,0.9-2,2s0.9,2,2,2h1.4c1.7,0,3.2,1.1,3.5,2.8
	c0.5,2.2-1.3,4.2-3.4,4.2H33h-1.5H30H8c-1.7,0-3-1.3-3-3s1.3-3,3-3h0.5c1.4,0,2.5-1.1,2.5-2.5S9.9,50,8.5,50h-3
	C3.6,50,2,48.4,2,46.5S3.6,43,5.5,43C6.9,43,8,41.9,8,40.5S6.9,38,5.5,38z"/>
<radialGradient id="SVGID_2_" cx="32" cy="35" r="23" gradientTransform="matrix(1 0 0 -1 0 66)" gradientUnits="userSpaceOnUse">
	<stop  offset="0" style="stop-color:#E7FAFF"/>
	<stop  offset="0.273" style="stop-color:#ECFBFF"/>
	<stop  offset="1" style="stop-color:#F6FEFF"/>
</radialGradient>
<path class="st1" d="M32,8C19.3,8,9,18.3,9,31s10.3,23,23,23s23-10.3,23-23S44.7,8,32,8z"/>
<linearGradient id="SVGID_3_" gradientUnits="userSpaceOnUse" x1="32" y1="60" x2="32" y2="10" gradientTransform="matrix(1 0 0 -1 0 66)">
	<stop  offset="0" style="stop-color:#42D778"/>
	<stop  offset="0.996" style="stop-color:#34B171"/>
</linearGradient>
<path class="st2" d="M32.5,6C31.1,6,30,7.1,30,8.5s1.1,2.5,2.5,2.5C43.3,11.3,52,20.1,52,31c0,11-9,20-20,20
	c-10.9,0-19.7-8.7-20-19.5c0-1.4-1.1-2.5-2.5-2.5S7,30.1,7,31.5C7.3,45.1,18.4,56,32,56c13.8,0,25-11.2,25-25
	C57,17.4,46.1,6.3,32.5,6z"/>
<linearGradient id="SVGID_4_" gradientUnits="userSpaceOnUse" x1="20.5" y1="35" x2="20.5" y2="54.114" gradientTransform="matrix(1 0 0 -1 0 66)">
	<stop  offset="0" style="stop-color:#A9E3C7"/>
	<stop  offset="1" style="stop-color:#B0F0CA"/>
</linearGradient>
<path class="st3" d="M20,12l-0.8-0.1C13.1,16,9,23,9,31h23L20,12z"/>
<linearGradient id="SVGID_5_" gradientUnits="userSpaceOnUse" x1="28.9999" y1="43.9997" x2="28.9999" y2="33" gradientTransform="matrix(1 0 0 -1 0 66)">
	<stop  offset="0" style="stop-color:#A4A4A4"/>
	<stop  offset="0.619" style="stop-color:#808080"/>
	<stop  offset="1" style="stop-color:#6F6F6F"/>
	<stop  offset="1" style="stop-color:#6F6F6F"/>
</linearGradient>
<path class="st4" d="M17,31c0-1.1,0.9-2,2-2h12.3c0.1-0.1,0.2-0.3,0.3-0.4l6-6c0.8-0.8,2-0.8,2.8,0s0.8,2,0,2.8L35,30.8
	c0,0.1,0,0.1,0,0.2c0,1.1-0.9,2-2,2H19C17.9,33,17,32.1,17,31z"/>
<linearGradient id="SVGID_6_" gradientUnits="userSpaceOnUse" x1="32" y1="39" x2="32" y2="31" gradientTransform="matrix(1 0 0 -1 0 66)">
	<stop  offset="0" style="stop-color:#A4A4A4"/>
	<stop  offset="0.619" style="stop-color:#808080"/>
	<stop  offset="1" style="stop-color:#6F6F6F"/>
	<stop  offset="1" style="stop-color:#6F6F6F"/>
</linearGradient>
<path class="st5" d="M32,27c-2.2,0-4,1.8-4,4s1.8,4,4,4s4-1.8,4-4S34.2,27,32,27z"/>
<g>
	
		<linearGradient id="SVGID_7_" gradientUnits="userSpaceOnUse" x1="32.0032" y1="60" x2="32.0032" y2="10" gradientTransform="matrix(1 0 0 -1 0 66)">
		<stop  offset="0" style="stop-color:#42D778"/>
		<stop  offset="0.996" style="stop-color:#34B171"/>
	</linearGradient>
	<path class="st6" d="M32,56C18.5,56,7.3,45,7,31.6C7,30.2,8.1,29,9.5,29c0,0,0,0,0.1,0c1.4,0,2.5,1.1,2.5,2.4
		C12.2,42.2,21.2,51,32,51c11,0,20-9,20-20s-9-20-20-20c-3.6,0-7.1,1-10.2,2.8c-1.2,0.7-2.7,0.3-3.4-0.9c-0.7-1.2-0.3-2.7,0.9-3.4
		C23.1,7.2,27.5,6,32,6c13.8,0,25,11.2,25,25S45.8,56,32,56z"/>
</g>
</svg>
