<?xml version="1.0" encoding="utf-8"?>
<!-- Generator: Adobe Illustrator 24.0.1, SVG Export Plug-In . SVG Version: 6.00 Build 0)  -->
<svg version="1.1" id="Слой_1" xmlns="http://www.w3.org/2000/svg" xmlns:xlink="http://www.w3.org/1999/xlink" x="0px" y="0px"
	 viewBox="0 0 64 64" style="enable-background:new 0 0 64 64;" xml:space="preserve">
<style type="text/css">
	.st0{fill:url(#SVGID_1_);}
	.st1{fill:url(#SVGID_2_);}
	.st2{fill:#FFFFFF;}
</style>
<radialGradient id="SVGID_1_" cx="32.5" cy="34.5" r="30.5163" gradientTransform="matrix(1 0 0 -1 0 66)" gradientUnits="userSpaceOnUse">
	<stop  offset="0" style="stop-color:#AFEEFF"/>
	<stop  offset="0.193" style="stop-color:#BBF1FF"/>
	<stop  offset="0.703" style="stop-color:#D7F8FF"/>
	<stop  offset="1" style="stop-color:#E1FAFF"/>
</radialGradient>
<path class="st0" d="M59,20h1.5c2.2,0,3.9-2,3.4-4.2c-0.3-1.6-1.9-2.8-3.5-2.8H53c-1.1,0-2-0.9-2-2s0.9-2,2-2h3.4
	c1.7,0,3.2-1.1,3.5-2.8C60.4,4,58.7,2,56.5,2H34h-1.5h-24C6.6,2,5,3.6,5,5.5S6.6,9,8.5,9H10c1.1,0,2,0.9,2,2s-0.9,2-2,2H4.6
	c-1.7,0-3.2,1.1-3.5,2.8C0.6,18,2.3,20,4.5,20H18v12H4.6c-1.7,0-3.2,1.1-3.5,2.8C0.6,37,2.3,39,4.5,39H5c1.1,0,2,0.9,2,2s-0.9,2-2,2
	H4.5c-2.2,0-3.9,2-3.4,4.2C1.4,48.9,2.9,50,4.6,50H10c1.1,0,2,0.9,2,2s-0.9,2-2,2H8.6c-1.7,0-3.2,1.1-3.5,2.8C4.6,59,6.3,61,8.5,61
	H31h1.5h23c1.9,0,3.5-1.6,3.5-3.5S57.4,54,55.5,54H55c-1.1,0-2-0.9-2-2s0.9-2,2-2h4.4c1.7,0,3.2-1.1,3.5-2.8
	c0.5-2.2-1.3-4.2-3.4-4.2H47V31h12.4c1.7,0,3.2-1.1,3.5-2.8c0.5-2.2-1.3-4.2-3.4-4.2H59c-1.1,0-2-0.9-2-2S57.9,20,59,20z"/>
<linearGradient id="SVGID_2_" gradientUnits="userSpaceOnUse" x1="32" y1="1.975" x2="32" y2="51.975" gradientTransform="matrix(1 0 0 -1 0 66)">
	<stop  offset="0" style="stop-color:#155CDE"/>
	<stop  offset="0.278" style="stop-color:#1F7FE5"/>
	<stop  offset="0.569" style="stop-color:#279CEB"/>
	<stop  offset="0.82" style="stop-color:#2CAFEF"/>
	<stop  offset="1" style="stop-color:#2EB5F0"/>
</linearGradient>
<path class="st1" d="M57,31c0,13.8-11.2,25-25,25S7,44.8,7,31S18.2,6,32,6S57,17.2,57,31z"/>
<path class="st2" d="M24,20v17h-1c-1.1,0-2,0.9-2,2l0,0c0,1.1,0.9,2,2,2h1v2.5c0,1.4,1.1,2.5,2.5,2.5l0,0c1.4,0,2.5-1.1,2.5-2.5V41
	h3c1.1,0,2-0.9,2-2l0,0c0-1.1-0.9-2-2-2h-3v-3h7c4.4,0,8-3.6,8-8l0,0c0-4.4-3.6-8-8-8H26C24.9,18,24,18.9,24,20z M29,30v-8h6
	c2.2,0,4,1.8,4,4l0,0c0,2.2-1.8,4-4,4H29z"/>
</svg>
