<?xml version="1.0" encoding="utf-8"?>
<!-- Generator: Adobe Illustrator 24.0.1, SVG Export Plug-In . SVG Version: 6.00 Build 0)  -->
<svg version="1.1" id="Capa_1" xmlns="http://www.w3.org/2000/svg" xmlns:xlink="http://www.w3.org/1999/xlink" x="0px" y="0px"
	 viewBox="0 0 2221.1 612" style="enable-background:new 0 0 2221.1 612;" xml:space="preserve">
<style type="text/css">
	.st0{fill:#313233;}
	.st1{font-family:'ArialMT';}
	.st2{font-size:350px;}
	.st3{fill:#FDD965;}
	.st4{font-family:'Arial-BoldMT';}
	.st5{fill:#82635A;}
	.st6{fill:#FCD86E;}
	.st7{fill:#FFCC66;}
	.st8{fill:#2C5871;}
	.st9{fill:#2DE8E8;}
	.st10{fill:#1D4859;}
	.st11{fill:#193D4B;}
	.st12{fill:#E1EFFB;}
	.st13{fill:none;}
</style>
<text transform="matrix(1 0 0 1 53.3865 424.1143)"><tspan x="0" y="0" class="st0 st1 st2">Эва</tspan><tspan x="632.2" y="0" class="st3 st4 st2">Макс</tspan></text>
<path class="st5" d="M1714.8,257.1c-4.8,0-8.8,3.9-8.8,8.8c0,5.4-2.2,10.4-6.1,14.1c-3.9,3.7-9.1,5.5-14.4,5.2
	c-9.5-0.6-17.4-8.5-18-18c-0.6-9.3,5.6-17.7,14.6-20c7.9-1.9,13.4-9,13.4-17.3V116c0-4.8-3.9-8.8-8.8-8.8c-4.8,0-8.8,3.9-8.8,8.8
	v113.8c0,0.1-0.1,0.2,0,0.2c-17.3,4.3-29.1,20.3-27.9,38.1c1.1,18.5,15.9,33.3,34.4,34.4c0.8,0.1,1.6,0.1,2.4,0.1
	c9.4,0,18.3-3.5,25.2-10c7.4-6.9,11.6-16.7,11.6-26.8C1723.6,261,1719.7,257.1,1714.8,257.1z"/>
<path class="st6" d="M1674.2,123.1c-9-9.5-9.1-24.5-0.3-34.2c4.5-4.9,10.6-7.8,17.3-8.2c6.1-0.3,12.1,1.6,16.9,5.3l209.5,168
	c9.3,7.4,10.3,21.1,2.3,29.9l-28.2,31c-8,8.8-21.7,9-30,0.5L1674.2,123.1z"/>
<path class="st7" d="M1870.8,247.7c2.5-1.5,2.7-4.9,0.5-6.7l-174.9-140.3c-1.1-0.9-2.5-1.3-3.9-1.3c-0.1,0-0.2,0-0.3,0
	c-1.7,0.1-3.3,0.8-4.4,2.1c-2.2,2.4-2.2,6.3,0,8.7l154.9,159c1.8,1.9,4.9,1.6,6.3-0.6C1854.6,260.1,1862.1,253,1870.8,247.7z"/>
<path class="st8" d="M1856.4,389.4v-83.5c0-27,22-49,49-49c27,0,49,22,49,49v83.5H1856.4z"/>
<path class="st6" d="M1755.5,365.4l-0.8-2c-6.6-17.7-23.5-29.4-42.4-29.4h-49.7c-18.9,0-35.8,11.7-42.4,29.4l-0.8,2H1595
	c-4.8,0-8.6,3.9-8.6,8.6v56.1c0,1,0.1,1.9,0.2,2.9l0,0c1.1,7.4,7.4,13.1,15.1,13.1h552.2c15.8,0,28.6-12.8,28.6-28.6v-52
	L1755.5,365.4L1755.5,365.4z"/>
<path class="st7" d="M2153.9,446.1c15.8,0,29.4-12.8,29.4-28.6V262.8c0-5.8-2.3-11.4-6.4-15.5l-62.8-63.5c-4.1-4.2-9.8-6.6-15.7-6.6
	h-113c-11.4,0-20.6,9.2-20.6,20.6v248.3L2153.9,446.1L2153.9,446.1z"/>
<path class="st6" d="M2176.9,247.4l-62.8-63.5c-4.1-4.2-9.8-6.6-15.7-6.6h-53c5.9,0,11.5,2.4,15.7,6.6l62.8,63.5
	c4.1,4.1,6.4,9.7,6.4,15.5v154.6c0,15.8-13.5,28.6-29.4,28.6h53c15.8,0,29.4-12.8,29.4-28.6V262.8
	C2183.3,257,2181,251.5,2176.9,247.4z"/>
<path class="st9" d="M2002.9,307v-83.5c0-5,4.1-9.1,9.1-9.1h75.7c2.4,0,4.8,1,6.5,2.7l48.3,48.9c1.7,1.7,2.6,4,2.6,6.4V307
	c0,5-4.1,9.1-9.1,9.1h-124C2007,316.1,2002.9,312,2002.9,307z"/>
<g>
	<circle class="st10" cx="2079.8" cy="439.5" r="59.7"/>
	<circle class="st10" cx="1686.8" cy="439.5" r="59.7"/>
</g>
<path class="st11" d="M1686.8,499.3c33,0,59.7-26.7,59.7-59.7c0-16.5-6.7-31.4-17.5-42.2l-84.5,84.5
	C1655.3,492.6,1670.3,499.3,1686.8,499.3z"/>
<ellipse transform="matrix(3.327794e-02 -0.9994 0.9994 3.327794e-02 1191.3563 2110.7612)" class="st12" cx="1686.8" cy="439.5" rx="27.5" ry="27.5"/>
<circle class="st7" cx="1905.3" cy="304.9" r="18.3"/>
<path class="st11" d="M2079.8,499.3c33,0,59.7-26.7,59.7-59.7c0-16.5-6.7-31.4-17.5-42.2l-84.5,84.5
	C2048.4,492.6,2063.3,499.3,2079.8,499.3z"/>
<circle class="st12" cx="2079.8" cy="439.5" r="27.5"/>
<path class="st7" d="M1935.8,423.8h-82.1h-58h-22.7c-4.8,0-8.7-3.9-8.7-8.7v-16.3c0-4.8,3.9-8.7,8.7-8.7h162.7
	c4.8,0,8.7,3.9,8.7,8.7v16.3C1944.6,419.9,1940.6,423.8,1935.8,423.8z"/>
<path class="st10" d="M2025.3,335.6h-22.3c-4.8,0-8.8,3.9-8.8,8.8s3.9,8.8,8.8,8.8h22.3c4.8,0,8.8-3.9,8.8-8.8
	S2030.1,335.6,2025.3,335.6z"/>
<rect x="1705.2" y="142.3" class="st13" width="4.1" height="8.2"/>
<polygon class="st13" points="2802,499.3 2805,499.3 2805,499.3 2802,499.3 "/>
</svg>
