<?xml version="1.0" encoding="utf-8"?>
<!-- Generator: Adobe Illustrator 24.0.1, SVG Export Plug-In . SVG Version: 6.00 Build 0)  -->
<svg version="1.1" id="Capa_1" xmlns="http://www.w3.org/2000/svg" xmlns:xlink="http://www.w3.org/1999/xlink" x="0px" y="0px"
	 viewBox="0 0 2221.1 612" style="enable-background:new 0 0 2221.1 612;" xml:space="preserve">
<style type="text/css">
	.st0{fill:#313233;}
	.st1{font-family:'ArialMT';}
	.st2{font-size:350px;}
	.st3{fill:#FC7F23;}
	.st4{font-family:'Arial-BoldMT';}
	.st5{fill:none;}
	.st6{fill:#82635A;}
	.st7{fill:#FF6200;}
	.st8{fill:#2C5871;}
	.st9{fill:#45748C;}
	.st10{fill:#2DE8E8;}
	.st11{fill:#1D4859;}
	.st12{fill:#193D4B;}
	.st13{fill:#E1EFFB;}
	.st14{fill:#FF901D;}
	.st15{fill:#305B68;}
</style>
<text transform="matrix(1 0 0 1 53.3865 424.1143)" class="st0 st1 st2">Эва</text>
<text transform="matrix(1 0 0 1 707.937 424.4885)" class="st3 st4 st2">Макс</text>
<polygon class="st5" points="2802,499.3 2805,499.3 2805,499.3 "/>
<path class="st6" d="M1739.6,244.3c-4.2,0-7.5,3.4-7.5,7.5c0,4.6-1.9,8.9-5.2,12.1c-3.4,3.2-7.8,4.7-12.4,4.4
	c-8.1-0.5-14.9-7.3-15.4-15.4c-0.5-8,4.8-15.2,12.5-17.1c6.8-1.7,11.5-7.8,11.5-14.8v-97.6c0-4.2-3.4-7.5-7.5-7.5s-7.5,3.4-7.5,7.5
	V221c0,0.1,0,0.2,0,0.2c-14.8,3.6-24.9,17.4-24,32.7c1,15.8,13.7,28.5,29.5,29.5c0.7,0,1.4,0.1,2,0.1c8.1,0,15.7-3,21.6-8.6
	c6.3-5.9,10-14.3,10-23C1747.1,247.7,1743.8,244.3,1739.6,244.3z"/>
<path class="st7" d="M1704.7,129.4c-7.7-8.1-7.8-21-0.3-29.4c3.8-4.2,9.1-6.7,14.8-7c5.2-0.3,10.4,1.3,14.5,4.6l179.7,144.1
	c7.9,6.4,8.9,18.1,2,25.7l-24.2,26.6c-6.8,7.5-18.6,7.7-25.7,0.4L1704.7,129.4z"/>
<path class="st3" d="M1873.4,236.3c2.1-1.3,2.3-4.2,0.4-5.8l-150.1-120.3c-1-0.7-2.2-1.1-3.4-1.1c-0.1,0-0.2,0-0.3,0
	c-1.5,0.1-2.8,0.7-3.8,1.8c-1.9,2.1-1.9,5.4,0,7.4l132.9,136.4c1.6,1.6,4.2,1.4,5.4-0.5C1859.5,246.9,1865.9,240.8,1873.4,236.3z"/>
<path class="st8" d="M1861,357.9v-71.6c0-23.2,18.8-42,42-42c23.2,0,42,18.8,42,42v71.6H1861z"/>
<path class="st9" d="M1774.5,337.3l-0.7-1.7c-5.7-15.2-20.2-25.2-36.4-25.2h-42.7c-16.2,0-30.7,10-36.4,25.2l-0.7,1.7h-20.8
	c-4.1,0-7.4,3.3-7.4,7.4v48.1c0,0.8,0.1,1.6,0.2,2.5l0,0c0.9,6.3,6.3,11.2,12.9,11.2h473.7c13.6,0,24.6-11,24.6-24.6v-44.6
	L1774.5,337.3L1774.5,337.3z"/>
<path class="st3" d="M2116.2,406.5c13.6,0,25.2-11,25.2-24.6V249.3c0-5-2-9.7-5.5-13.3l-53.9-54.5c-3.6-3.6-8.4-5.6-13.5-5.6h-97
	c-9.7,0-17.6,7.9-17.6,17.6v213L2116.2,406.5L2116.2,406.5z"/>
<path class="st7" d="M2136,236l-53.9-54.5c-3.6-3.6-8.4-5.6-13.5-5.6h-45.5c5.1,0,9.9,2,13.5,5.6l53.9,54.5
	c3.5,3.5,5.5,8.3,5.5,13.3v132.6c0,13.6-11.6,24.6-25.2,24.6h45.5c13.6,0,25.2-11,25.2-24.6V249.3
	C2141.4,244.3,2139.5,239.5,2136,236z"/>
<path class="st10" d="M1986.8,287.2v-71.6c0-4.3,3.5-7.8,7.8-7.8h64.9c2.1,0,4.1,0.8,5.6,2.3l41.4,41.9c1.4,1.5,2.3,3.4,2.3,5.5
	v29.7c0,4.3-3.5,7.8-7.8,7.8h-106.4C1990.2,295,1986.8,291.5,1986.8,287.2z"/>
<g>
	<circle class="st11" cx="2052.7" cy="400.9" r="51.2"/>
	<circle class="st11" cx="1715.5" cy="400.9" r="51.2"/>
</g>
<path class="st12" d="M1715.5,452.1c28.3,0,51.2-22.9,51.2-51.2c0-14.2-5.7-27-15-36.2l-72.5,72.5
	C1688.6,446.4,1701.4,452.1,1715.5,452.1z"/>
<ellipse transform="matrix(3.327793e-02 -0.9994 0.9994 3.327793e-02 1257.8025 2102.1189)" class="st13" cx="1715.5" cy="400.9" rx="23.6" ry="23.6"/>
<circle class="st14" cx="1903" cy="285.4" r="15.7"/>
<path class="st12" d="M2052.7,452.1c28.3,0,51.2-22.9,51.2-51.2c0-14.2-5.7-27-15-36.2l-72.5,72.5
	C2025.7,446.4,2038.5,452.1,2052.7,452.1z"/>
<circle class="st13" cx="2052.7" cy="400.9" r="23.6"/>
<path class="st15" d="M1929.2,387.4h-70.4H1809h-19.4c-4.1,0-7.5-3.4-7.5-7.5v-13.9c0-4.1,3.4-7.5,7.5-7.5h139.6
	c4.1,0,7.5,3.4,7.5,7.5v13.9C1936.7,384,1933.3,387.4,1929.2,387.4z"/>
<path class="st11" d="M2005.9,311.7h-19.2c-4.2,0-7.5,3.4-7.5,7.5s3.4,7.5,7.5,7.5h19.2c4.2,0,7.5-3.4,7.5-7.5
	S2010.1,311.7,2005.9,311.7z"/>
</svg>
