<?xml version="1.0" encoding="utf-8"?>
<!-- Generator: Adobe Illustrator 24.0.1, SVG Export Plug-In . SVG Version: 6.00 Build 0)  -->
<svg version="1.1" id="Слой_1" xmlns="http://www.w3.org/2000/svg" xmlns:xlink="http://www.w3.org/1999/xlink" x="0px" y="0px"
	 viewBox="0 0 1743 1630" style="enable-background:new 0 0 1743 1630;" xml:space="preserve">
<style type="text/css">
	.st0{fill:none;stroke:#F87D22;stroke-width:60;stroke-miterlimit:10;}
	.st1{fill:#82635A;}
	.st2{fill:#FF6200;}
	.st3{fill:#FC7F23;}
	.st4{fill:#2C5871;}
	.st5{fill:#45748C;}
	.st6{fill:#2DE8E8;}
	.st7{fill:#1D4859;}
	.st8{fill:#193D4B;}
	.st9{fill:#E1EFFB;}
	.st10{fill:#FF901D;}
	.st11{fill:#305B68;}
</style>
<circle class="st0" cx="900" cy="793.5" r="725.7"/>
<title>Artboard</title>
<g id="Artboard">
	<g id="logo-evamax" transform="translate(370.000000, 420.000000)">
		<path id="Path" class="st1" d="M247.3,301.4c-8.1,0-14.5,6.6-14.5,14.6c0,8.9-3.7,17.3-10,23.5c-6.6,6.2-15.1,9.1-24,8.6
			c-15.6-1-28.8-14.2-29.7-30c-1-15.6,9.3-29.6,24.1-33.3c13.1-3.3,22.2-15.2,22.2-28.8V66.2c0-8.2-6.6-14.6-14.5-14.6
			c-7.9,0-14.5,6.6-14.5,14.6V256c0,0.2,0,0.4,0,0.4c-28.6,7-48.1,33.8-46.4,63.6c1.9,30.7,26.5,55.4,57,57.4c1.4,0,2.7,0.2,3.9,0.2
			c15.6,0,30.3-5.8,41.7-16.7c12.2-11.5,19.3-27.8,19.3-44.7C261.8,308,255.4,301.4,247.3,301.4z"/>
		<path id="Path_1_" class="st2" d="M179.4,79.3c-15-15.7-15.2-40.7-0.6-57c7.4-8.1,17.7-13,28.8-13.6c10.1-0.6,20.2,2.5,28.2,8.9
			L585.2,297c15.4,12.4,17.3,35.1,3.9,49.8L542,398.5c-13.2,14.5-36.2,14.9-50,0.8L179.4,79.3z"/>
		<path id="Path_2_" class="st3" d="M507.7,286.6c4.1-2.5,4.5-8.2,0.8-11.3L216.4,40.8c-1.9-1.4-4.3-2.1-6.6-2.1c-0.2,0-0.4,0-0.6,0
			c-2.9,0.2-5.4,1.4-7.4,3.5c-3.7,4.1-3.7,10.5,0,14.4l258.6,266c3.1,3.1,8.2,2.7,10.5-1C480.6,307.3,493.1,295.4,507.7,286.6z"/>
		<path id="Path_3_" class="st4" d="M482,523.6V384.3c0-45.1,36.7-81.7,82-81.7s82,36.6,82,81.7v139.3H482z"/>
		<path id="Path_4_" class="st5" d="M315.7,483.7l-1.4-3.3c-11.1-29.4-39.2-48.8-70.7-48.8h-82.9c-31.5,0-59.6,19.4-70.7,48.8
			l-1.4,3.3H48.4c-8,0-14.4,6.4-14.4,14.3v93.1c0,1.5,0.2,3.1,0.4,4.8l0,0c1.7,12.2,12.2,21.7,25,21.7h919.8
			c26.4,0,47.8-21.3,47.8-47.6v-86.3H315.7L315.7,483.7z"/>
		<path id="Path_5_" class="st3" d="M980.1,617.6c26.4,0,48.9-21.4,48.9-47.8V312.2c0-9.7-3.9-18.8-10.7-25.8L913.7,180.5
			c-7-7-16.3-10.9-26.2-10.9H699.2c-18.8,0-34.2,15.3-34.2,34.2v413.8H980.1L980.1,617.6z"/>
		<path id="Path_6_" class="st2" d="M1018.3,286.4L913.1,180.5c-7-7-16.4-10.9-26.3-10.9H798c10,0,19.3,3.9,26.3,10.9l105.2,105.9
			c6.8,6.8,10.7,16.1,10.7,25.8v257.6c0,26.4-22.6,47.8-49.2,47.8h88.8c26.5,0,49.2-21.4,49.2-47.8V312.2
			C1028.8,302.5,1025.1,293.2,1018.3,286.4z"/>
		<path id="Path_7_" class="st6" d="M728,385.5V246.7c0-8.3,6.8-15.1,15.2-15.1h126.6c4.1,0,8,1.6,10.9,4.5l80.8,81.2
			c2.7,2.9,4.5,6.6,4.5,10.7v57.6c0,8.3-6.8,15.1-15.2,15.1H743.2C734.6,400.6,728,393.8,728,385.5z"/>
		<g id="Group" transform="translate(67.000000, 498.000000)">
			<ellipse id="Oval" class="st7" cx="790.2" cy="108.4" rx="99.6" ry="99.8"/>
			<ellipse id="Oval_1_" class="st7" cx="134.2" cy="108.4" rx="99.6" ry="99.8"/>
		</g>
		<path id="Path_8_" class="st8" d="M200.9,706.6c55.3,0,100.1-44.3,100.1-99c0-27.5-11.1-52.2-29.3-70L130,677.8
			C148.4,695.6,173.4,706.6,200.9,706.6z"/>
		
			<ellipse id="Oval_2_" transform="matrix(3.327950e-02 -0.9994 0.9994 3.327950e-02 -411.9087 787.0745)" class="st9" cx="200.9" cy="606.5" rx="45.9" ry="45.9"/>
		<circle id="Oval_3_" class="st10" cx="565.5" cy="382.1" r="30.5"/>
		<path id="Path_9_" class="st8" d="M856.9,706.6c55.3,0,100.1-44.3,100.1-99c0-27.5-11.1-52.2-29.3-70L786,677.8
			C804.2,695.6,829.2,706.6,856.9,706.6z"/>
		<circle id="Oval_4_" class="st9" cx="857" cy="605.6" r="46"/>
		<path id="Path_10_" class="st11" d="M616.4,580.6H479.8h-96.6h-37.6c-8,0-14.6-6.7-14.6-14.8v-27.4c0-8.1,6.6-14.8,14.6-14.8
			h270.9c8,0,14.6,6.7,14.6,14.8v27.4C631,573.9,624.4,580.6,616.4,580.6z"/>
		<path id="Path_11_" class="st7" d="M766.3,432.6h-37.6c-8.2,0-14.7,6.6-14.7,14.5s6.7,14.5,14.7,14.5h37.6
			c8.2,0,14.7-6.6,14.7-14.5S774.5,432.6,766.3,432.6z"/>
	</g>
</g>
</svg>
