<?xml version="1.0" encoding="utf-8"?>
<!-- Generator: Adobe Illustrator 17.1.0, SVG Export Plug-In . SVG Version: 6.00 Build 0)  -->
<!DOCTYPE svg PUBLIC "-//W3C//DTD SVG 1.1//EN" "http://www.w3.org/Graphics/SVG/1.1/DTD/svg11.dtd">
<svg version="1.1" id="Layer_1" xmlns="http://www.w3.org/2000/svg" xmlns:xlink="http://www.w3.org/1999/xlink" x="0px" y="0px"
	 width="300px" height="100px" viewBox="0 0 300 100" enable-background="new 0 0 300 100" xml:space="preserve">
<rect x="90.937" y="17.284" fill="#043933" width="158.509" height="62.594"/>
<g>
	<path fill="#F3F3F3" d="M25.561,76.13c-4.967-7.678-7.854-16.831-7.854-26.651c0-27.127,22.026-49.153,49.153-49.153
		s49.153,22.026,49.153,49.153S93.987,98.631,66.86,98.631c-9.194,0-17.798-2.53-25.161-6.928l-23.992,7.994L25.561,76.13
		L25.561,76.13z"/>
	<path fill="#12A84B" d="M34.755,72.28c-4.584-6.436-7.28-14.306-7.28-22.802c0-21.736,17.648-39.384,39.384-39.384
		s39.384,17.648,39.384,39.384S88.596,88.858,66.86,88.858c-8.227,0-15.863-2.525-22.186-6.845l-14.808,4.936L34.755,72.28z"/>
</g>
<path fill="#F3F3F3" d="M55.032,59.702c-5.816-7.109-9.696-15.812-10.912-25.249c-0.326-2.628,0.548-5.267,2.385-7.176
	c1.837-1.909,4.439-2.887,7.078-2.665l0.254,0.026c0,0,2.903,0.776,4.491,1.206c0.631,0.171,1.133,0.642,1.345,1.257
	c0.714,2.121,2.401,7.104,3.198,9.448c0.259,0.761,0.021,1.604-0.59,2.121c-1.206,1.014-3.198,2.69-4.439,3.741
	c-0.667,0.564-0.88,1.5-0.517,2.292c1.444,3.146,3.285,6.085,5.469,8.744c2.246,2.597,4.827,4.91,7.683,6.866
	c0.724,0.492,1.682,0.44,2.349-0.124c1.247-1.045,3.239-2.722,4.439-3.736c0.616-0.517,1.485-0.605,2.194-0.222
	c2.173,1.18,6.799,3.684,8.765,4.75c0.574,0.31,0.957,0.89,1.014,1.537c0.15,1.64,0.429,4.631,0.429,4.631l-0.021,0.254
	c-0.228,2.639-1.63,5.039-3.824,6.524c-2.194,1.49-4.941,1.904-7.476,1.138c-9.168-2.82-17.141-8.18-23.174-15.196L55.032,59.702
	L55.032,59.702z"/>
<ellipse fill="#043933" cx="250.12" cy="48.581" rx="32.078" ry="31.297"/>
<g>
	<path fill="#F5F6F6" d="M134.394,31.806h4.803l1.729,9.16l2.531-9.16h4.785l2.537,9.148l1.732-9.148h4.777l-3.606,16.364h-4.959
		l-2.87-10.303l-2.859,10.303h-4.959L134.394,31.806z"/>
	<path fill="#F5F6F6" d="M159.399,31.806h4.541v6.028c0.619-0.641,1.233-1.098,1.842-1.374c0.611-0.275,1.331-0.412,2.166-0.412
		c1.235,0,2.208,0.375,2.918,1.127c0.71,0.751,1.066,1.905,1.066,3.46v7.534h-4.566v-6.518c0-0.744-0.137-1.271-0.412-1.58
		c-0.276-0.309-0.662-0.464-1.161-0.464c-0.551,0-0.998,0.209-1.339,0.625c-0.342,0.417-0.515,1.165-0.515,2.244v5.693h-4.541
		V31.806z"/>
	<path fill="#F5F6F6" d="M178.787,40.154l-4.342-0.458c0.163-0.759,0.4-1.356,0.708-1.791c0.31-0.435,0.754-0.814,1.333-1.133
		c0.418-0.23,0.99-0.409,1.72-0.536c0.73-0.126,1.519-0.189,2.367-0.189c1.362,0,2.456,0.076,3.28,0.228
		c0.827,0.153,1.514,0.471,2.066,0.954c0.386,0.335,0.692,0.81,0.915,1.423c0.223,0.614,0.336,1.201,0.336,1.759v5.234
		c0,0.558,0.034,0.996,0.105,1.312c0.072,0.316,0.225,0.72,0.465,1.211h-4.264c-0.173-0.305-0.284-0.538-0.336-0.698
		c-0.052-0.16-0.105-0.411-0.157-0.753c-0.595,0.573-1.187,0.982-1.774,1.228c-0.804,0.328-1.738,0.491-2.802,0.491
		c-1.414,0-2.488-0.327-3.22-0.981c-0.734-0.655-1.1-1.462-1.1-2.423c0-0.9,0.263-1.641,0.792-2.221
		c0.529-0.58,1.504-1.012,2.924-1.295c1.706-0.342,2.81-0.581,3.317-0.719c0.505-0.138,1.042-0.319,1.607-0.542
		c0-0.558-0.117-0.948-0.346-1.172c-0.231-0.223-0.638-0.335-1.217-0.335c-0.744,0-1.303,0.119-1.675,0.357
		C179.2,39.291,178.964,39.641,178.787,40.154z M182.727,42.544c-0.626,0.223-1.277,0.42-1.953,0.591
		c-0.923,0.245-1.508,0.488-1.754,0.725c-0.253,0.246-0.378,0.525-0.378,0.838c0,0.357,0.123,0.65,0.372,0.876
		c0.249,0.227,0.617,0.341,1.1,0.341c0.507,0,0.977-0.123,1.412-0.368c0.436-0.246,0.744-0.545,0.927-0.899
		c0.181-0.353,0.274-0.813,0.274-1.379V42.544z"/>
	<path fill="#F5F6F6" d="M194.984,31.806v4.509h2.5v3.327h-2.5v4.2c0,0.505,0.048,0.84,0.145,1.003
		c0.149,0.252,0.408,0.379,0.78,0.379c0.336,0,0.805-0.097,1.408-0.29l0.334,3.136c-1.124,0.245-2.172,0.368-3.148,0.368
		c-1.13,0-1.965-0.145-2.5-0.434c-0.537-0.29-0.933-0.73-1.189-1.321c-0.257-0.59-0.386-1.548-0.386-2.87v-4.169h-1.673v-3.327
		h1.673v-2.177L194.984,31.806z"/>
	<path fill="#F5F6F6" d="M198.846,44.877l4.509-0.424c0.187,0.536,0.447,0.919,0.782,1.149c0.334,0.23,0.78,0.346,1.339,0.346
		c0.609,0,1.082-0.13,1.418-0.39c0.259-0.193,0.39-0.434,0.39-0.724c0-0.327-0.171-0.579-0.515-0.758
		c-0.245-0.126-0.895-0.282-1.953-0.468c-1.577-0.276-2.673-0.53-3.286-0.764c-0.613-0.234-1.132-0.63-1.553-1.188
		c-0.42-0.557-0.63-1.193-0.63-1.907c0-0.78,0.227-1.453,0.68-2.018c0.455-0.565,1.08-0.987,1.876-1.266
		c0.796-0.279,1.864-0.417,3.204-0.417c1.412,0,2.456,0.108,3.13,0.323c0.674,0.216,1.235,0.551,1.685,1.005
		c0.451,0.455,0.825,1.068,1.122,1.842l-4.308,0.424c-0.113-0.38-0.298-0.659-0.559-0.838c-0.356-0.238-0.788-0.357-1.293-0.357
		c-0.515,0-0.889,0.092-1.122,0.274c-0.235,0.182-0.352,0.402-0.352,0.663c0,0.29,0.149,0.509,0.447,0.658
		c0.298,0.149,0.945,0.283,1.943,0.401c1.51,0.171,2.633,0.408,3.371,0.714c0.736,0.305,1.299,0.739,1.691,1.304
		c0.39,0.565,0.585,1.186,0.585,1.862c0,0.684-0.207,1.35-0.619,1.996c-0.412,0.647-1.064,1.161-1.953,1.544
		c-0.891,0.383-2.102,0.574-3.634,0.574c-2.166,0-3.707-0.309-4.626-0.926C199.696,46.893,199.107,46.015,198.846,44.877z"/>
	<path fill="#F5F6F6" d="M223.976,45.468h-5.742l-0.796,2.701h-5.163l6.15-16.364h5.515l6.148,16.364h-5.294L223.976,45.468z
		 M222.926,41.929l-1.806-5.882l-1.788,5.882H222.926z"/>
	<path fill="#F5F6F6" d="M231.808,52.678V36.315h4.252v1.753c0.589-0.737,1.128-1.236,1.619-1.496
		c0.662-0.349,1.396-0.524,2.198-0.524c1.585,0,2.812,0.606,3.679,1.819c0.867,1.213,1.301,2.712,1.301,4.498
		c0,1.972-0.473,3.477-1.418,4.515c-0.945,1.038-2.14,1.557-3.584,1.557c-0.7,0-1.337-0.119-1.915-0.357
		c-0.575-0.238-1.092-0.591-1.545-1.06v5.659H231.808z M236.362,42.275c0,0.938,0.197,1.634,0.591,2.088
		c0.394,0.454,0.893,0.681,1.496,0.681c0.529,0,0.971-0.217,1.327-0.653c0.358-0.435,0.537-1.175,0.537-2.216
		c0-0.959-0.187-1.664-0.559-2.115c-0.372-0.451-0.825-0.676-1.362-0.676c-0.579,0-1.064,0.227-1.45,0.682
		C236.555,40.519,236.362,41.256,236.362,42.275z"/>
	<path fill="#F5F6F6" d="M247.055,52.678V36.315h4.252v1.753c0.589-0.737,1.128-1.236,1.619-1.496
		c0.662-0.349,1.396-0.524,2.198-0.524c1.585,0,2.812,0.606,3.679,1.819c0.867,1.213,1.301,2.712,1.301,4.498
		c0,1.972-0.473,3.477-1.418,4.515c-0.945,1.038-2.14,1.557-3.584,1.557c-0.7,0-1.337-0.119-1.915-0.357
		c-0.575-0.238-1.092-0.591-1.545-1.06v5.659H247.055z M251.609,42.275c0,0.938,0.197,1.634,0.591,2.088
		c0.394,0.454,0.893,0.681,1.496,0.681c0.529,0,0.971-0.217,1.327-0.653c0.358-0.435,0.537-1.175,0.537-2.216
		c0-0.959-0.187-1.664-0.559-2.115c-0.372-0.451-0.825-0.676-1.362-0.676c-0.579,0-1.064,0.227-1.45,0.682
		C251.802,40.519,251.609,41.256,251.609,42.275z"/>
</g>
<g>
	<path fill="#12A84B" d="M136.124,58.958h1.296v3.184h3.593v-3.184h1.296v7.649h-1.296v-3.391h-3.593v3.391h-1.296V58.958z"/>
	<path fill="#12A84B" d="M149.252,65.663c-0.48,0.408-0.942,0.696-1.386,0.865c-0.444,0.167-0.921,0.251-1.43,0.251
		c-0.84,0-1.485-0.205-1.937-0.615c-0.452-0.41-0.677-0.935-0.677-1.575c0-0.374,0.085-0.716,0.255-1.026
		c0.171-0.31,0.394-0.557,0.67-0.744c0.277-0.187,0.587-0.33,0.933-0.426c0.254-0.066,0.638-0.131,1.151-0.193
		c1.047-0.125,1.817-0.274,2.312-0.446c0.005-0.179,0.007-0.292,0.007-0.34c0-0.527-0.123-0.899-0.367-1.116
		c-0.331-0.292-0.824-0.438-1.476-0.438c-0.609,0-1.06,0.107-1.351,0.32c-0.291,0.215-0.505,0.593-0.645,1.134l-1.267-0.173
		c0.116-0.541,0.305-0.979,0.569-1.313c0.263-0.334,0.646-0.591,1.144-0.77c0.5-0.181,1.078-0.272,1.736-0.272
		c0.653,0,1.184,0.078,1.592,0.231c0.407,0.153,0.708,0.348,0.9,0.579c0.192,0.233,0.327,0.527,0.403,0.883
		c0.043,0.221,0.064,0.619,0.064,1.195v1.73c0,1.205,0.028,1.967,0.083,2.285c0.055,0.32,0.164,0.626,0.328,0.919h-1.355
		C149.378,66.337,149.291,66.023,149.252,65.663z M149.144,62.769c-0.471,0.191-1.177,0.354-2.117,0.489
		c-0.533,0.076-0.91,0.163-1.131,0.259c-0.22,0.097-0.391,0.237-0.511,0.42c-0.12,0.185-0.18,0.39-0.18,0.617
		c0,0.344,0.131,0.634,0.392,0.863c0.261,0.231,0.645,0.346,1.148,0.346c0.5,0,0.943-0.109,1.332-0.328
		c0.389-0.217,0.675-0.517,0.857-0.897c0.14-0.292,0.209-0.724,0.209-1.295V62.769z"/>
	<path fill="#12A84B" d="M157.088,58.958v3.307c0.412,0,0.704-0.078,0.871-0.237c0.169-0.159,0.414-0.619,0.736-1.384
		c0.302-0.724,0.573-1.189,0.813-1.39c0.235-0.197,0.609-0.296,1.124-0.296h0.475v1.074l-0.352-0.008
		c-0.346,0-0.567,0.05-0.664,0.153c-0.101,0.105-0.253,0.418-0.461,0.943c-0.191,0.499-0.37,0.845-0.533,1.036
		c-0.163,0.193-0.418,0.368-0.762,0.527c0.561,0.149,1.108,0.666,1.641,1.555l1.426,2.369h-1.426l-1.39-2.369
		c-0.284-0.481-0.531-0.794-0.742-0.943c-0.211-0.149-0.465-0.223-0.756-0.223v3.536h-1.323v-3.536c-0.29,0-0.539,0.072-0.75,0.219
		c-0.211,0.147-0.459,0.463-0.742,0.947l-1.39,2.369h-1.426l1.419-2.369c0.538-0.889,1.087-1.406,1.65-1.555
		c-0.385-0.179-0.654-0.372-0.808-0.581c-0.154-0.209-0.384-0.706-0.692-1.494c-0.106-0.263-0.218-0.426-0.338-0.489
		c-0.125-0.062-0.31-0.095-0.555-0.095c-0.062,0-0.189,0.004-0.381,0.008v-1.074h0.18c0.499,0,0.851,0.03,1.055,0.091
		c0.204,0.06,0.386,0.187,0.547,0.382s0.371,0.599,0.631,1.213c0.317,0.754,0.558,1.213,0.725,1.376
		c0.165,0.163,0.457,0.245,0.875,0.245v-3.307H157.088z"/>
	<path fill="#12A84B" d="M162.365,58.958h2.017l2.009,6.122l2.232-6.122h1.864v7.649h-1.295V60.45l-2.263,6.156h-1.158l-2.14-6.452
		v6.452h-1.267V58.958z"/>
	<path fill="#12A84B" d="M172.47,58.958h1.297v5.835l3.594-5.835h1.396v7.649h-1.295V60.81l-3.594,5.796h-1.398V58.958z"/>
	<path fill="#12A84B" d="M180.01,58.958h6.215v1.074h-2.462v6.575h-1.289v-6.575h-2.464V58.958z"/>
	<path fill="#12A84B" d="M192.532,64.143l1.339,0.167c-0.211,0.782-0.601,1.39-1.173,1.822s-1.301,0.648-2.19,0.648
		c-1.118,0-2.005-0.344-2.661-1.034c-0.656-0.688-0.982-1.655-0.982-2.898c0-1.287,0.33-2.285,0.994-2.997
		c0.662-0.71,1.521-1.066,2.578-1.066c1.022,0,1.856,0.35,2.506,1.046c0.648,0.696,0.971,1.675,0.971,2.938
		c0,0.076-0.002,0.191-0.008,0.344h-5.702c0.046,0.841,0.286,1.484,0.712,1.931c0.426,0.446,0.959,0.67,1.599,0.67
		c0.475,0,0.881-0.125,1.217-0.374S192.337,64.692,192.532,64.143z M188.276,62.047h4.272c-0.058-0.642-0.221-1.124-0.491-1.446
		c-0.412-0.499-0.947-0.75-1.605-0.75c-0.595,0-1.096,0.199-1.502,0.599C188.544,60.848,188.321,61.381,188.276,62.047z"/>
	<path fill="#12A84B" d="M200.622,58.958h5.328v6.583h0.829v3.234h-1.066v-2.168h-6.02v2.168h-1.066V65.54h0.684
		C200.223,64.301,200.66,62.107,200.622,58.958z M201.702,60.032c-0.097,2.482-0.481,4.318-1.152,5.509h4.113v-5.509H201.702z"/>
	<path fill="#12A84B" d="M208.838,58.958h6.022v7.649h-1.289v-6.575h-3.435v3.809c0,0.889-0.028,1.474-0.086,1.758
		c-0.058,0.284-0.215,0.531-0.475,0.742c-0.259,0.211-0.634,0.316-1.124,0.316c-0.302,0-0.65-0.02-1.044-0.058v-1.08h0.569
		c0.268,0,0.461-0.026,0.575-0.082c0.117-0.054,0.193-0.143,0.231-0.263c0.038-0.119,0.056-0.511,0.056-1.173V58.958z"/>
	<path fill="#12A84B" d="M222.832,58.958v7.649h-1.289v-2.981h-0.75c-0.455,0-0.794,0.058-1.018,0.175
		c-0.223,0.119-0.549,0.497-0.975,1.134l-1.132,1.671h-1.605l1.398-2.06c0.426-0.63,0.851-0.984,1.273-1.066
		c-0.738-0.101-1.287-0.368-1.645-0.798c-0.358-0.432-0.537-0.929-0.537-1.492c0-0.662,0.235-1.199,0.704-1.613
		c0.467-0.412,1.144-0.619,2.033-0.619H222.832z M221.543,60.032h-1.844c-0.772,0-1.271,0.121-1.494,0.36
		c-0.223,0.239-0.334,0.521-0.334,0.843c0,0.457,0.163,0.79,0.493,1.004c0.328,0.215,0.911,0.322,1.746,0.322h1.434V60.032z"/>
	<path fill="#12A84B" d="M228.419,58.958h1.297v1.448c0,0.623,0.036,1.076,0.111,1.358c0.074,0.282,0.253,0.525,0.537,0.734
		s0.638,0.314,1.066,0.314c0.489,0,1.122-0.129,1.901-0.388v-3.465h1.297v7.649h-1.297v-3.081c-0.796,0.249-1.541,0.374-2.232,0.374
		c-0.581,0-1.094-0.149-1.537-0.444c-0.444-0.294-0.746-0.656-0.905-1.082c-0.159-0.428-0.237-0.899-0.237-1.412V58.958z"/>
	<path fill="#12A84B" d="M241.569,65.663c-0.481,0.408-0.943,0.696-1.388,0.865c-0.442,0.167-0.919,0.251-1.428,0.251
		c-0.841,0-1.486-0.205-1.937-0.615c-0.453-0.41-0.678-0.935-0.678-1.575c0-0.374,0.084-0.716,0.255-1.026
		c0.171-0.31,0.394-0.557,0.67-0.744s0.587-0.33,0.933-0.426c0.253-0.066,0.638-0.131,1.152-0.193
		c1.046-0.125,1.816-0.274,2.311-0.446c0.004-0.179,0.008-0.292,0.008-0.34c0-0.527-0.123-0.899-0.368-1.116
		c-0.332-0.292-0.823-0.438-1.476-0.438c-0.609,0-1.06,0.107-1.35,0.32c-0.292,0.215-0.507,0.593-0.646,1.134l-1.267-0.173
		c0.115-0.541,0.306-0.979,0.569-1.313s0.646-0.591,1.144-0.77c0.499-0.181,1.078-0.272,1.736-0.272
		c0.654,0,1.183,0.078,1.591,0.231c0.408,0.153,0.708,0.348,0.901,0.579c0.191,0.233,0.326,0.527,0.402,0.883
		c0.044,0.221,0.066,0.619,0.066,1.195v1.73c0,1.205,0.026,1.967,0.082,2.285c0.054,0.32,0.165,0.626,0.328,0.919h-1.354
		C241.693,66.337,241.607,66.023,241.569,65.663z M241.46,62.769c-0.471,0.191-1.177,0.354-2.118,0.489
		c-0.533,0.076-0.909,0.163-1.13,0.259c-0.221,0.097-0.39,0.237-0.511,0.42c-0.121,0.185-0.181,0.39-0.181,0.617
		c0,0.344,0.131,0.634,0.394,0.863c0.261,0.231,0.644,0.346,1.148,0.346c0.499,0,0.943-0.109,1.331-0.328
		c0.388-0.217,0.674-0.517,0.857-0.897c0.139-0.292,0.209-0.724,0.209-1.295V62.769z"/>
	<path fill="#12A84B" d="M243.757,58.958h6.215v1.074h-2.462v6.575h-1.289v-6.575h-2.464V58.958z"/>
	<path fill="#12A84B" d="M256.038,65.663c-0.481,0.408-0.943,0.696-1.388,0.865c-0.442,0.167-0.919,0.251-1.428,0.251
		c-0.841,0-1.486-0.205-1.937-0.615c-0.453-0.41-0.678-0.935-0.678-1.575c0-0.374,0.084-0.716,0.255-1.026
		c0.171-0.31,0.394-0.557,0.67-0.744s0.587-0.33,0.933-0.426c0.253-0.066,0.638-0.131,1.152-0.193
		c1.046-0.125,1.816-0.274,2.311-0.446c0.004-0.179,0.008-0.292,0.008-0.34c0-0.527-0.123-0.899-0.368-1.116
		c-0.332-0.292-0.823-0.438-1.476-0.438c-0.609,0-1.06,0.107-1.35,0.32c-0.292,0.215-0.507,0.593-0.646,1.134l-1.267-0.173
		c0.115-0.541,0.306-0.979,0.569-1.313s0.646-0.591,1.144-0.77c0.499-0.181,1.078-0.272,1.736-0.272
		c0.654,0,1.183,0.078,1.591,0.231c0.408,0.153,0.708,0.348,0.901,0.579c0.191,0.233,0.326,0.527,0.402,0.883
		c0.044,0.221,0.066,0.619,0.066,1.195v1.73c0,1.205,0.026,1.967,0.082,2.285c0.054,0.32,0.165,0.626,0.328,0.919h-1.354
		C256.162,66.337,256.076,66.023,256.038,65.663z M255.929,62.769c-0.471,0.191-1.177,0.354-2.118,0.489
		c-0.533,0.076-0.909,0.163-1.13,0.259c-0.221,0.097-0.39,0.237-0.511,0.42c-0.121,0.185-0.181,0.39-0.181,0.617
		c0,0.344,0.131,0.634,0.394,0.863c0.261,0.231,0.644,0.346,1.148,0.346c0.499,0,0.943-0.109,1.331-0.328
		c0.388-0.217,0.674-0.517,0.857-0.897c0.139-0.292,0.209-0.724,0.209-1.295V62.769z"/>
</g>
</svg>
